# xmcd CD database file
#
# Track frame offsets:
#	151
#	19164
#	37727
#	58746
#	77447
#	97864
#	116451
#	135852
#	154607
#	174418
#
# Disc length: 2516 seconds
#
# Revision: 0
# Processed by: cddbd v1.5.2PL0 Copyright (c) Steve Scherf et al.
# Submitted via: CDex 1.77
#
DISCID=6309d20a
DTITLE=Kontrol - Los Reyes De La Alegria
DYEAR=2000
DGENRE=Merengue
TTITLE0=Los Hombre Lentos
TTITLE1=El Maiz
TTITLE2=Merengue Party II
TTITLE3=La Silla
TTITLE4=Mas Alla De Todo
TTITLE5=Con Eso No Juego Yo
TTITLE6=El Difunto
TTITLE7=Se Te Nota
TTITLE8=Queremos Libertad
TTITLE9=El Sueno
EXTD=YEAR: 2000
EXTT0=
EXTT1=
EXTT2=
EXTT3=
EXTT4=
EXTT5=
EXTT6=
EXTT7=
EXTT8=
EXTT9=
PLAYORDER=
